<svg width="89" height="89" viewBox="0 0 89 89" fill="none" xmlns="http://www.w3.org/2000/svg">
<path fill-rule="evenodd" clip-rule="evenodd" d="M88.2221 69.1147C88.2192 78.6824 82.2045 86.0735 72.7868 88.0882C72.6839 88.1118 72.5898 88.1853 72.4898 88.2353C72.3163 88.2353 72.1427 88.2353 71.9721 88.2353C71.9604 84.0735 71.9398 79.9147 71.9574 75.7529C71.9604 75.5147 72.2045 75.1912 72.428 75.0529C74.5633 73.7294 75.628 71.8382 75.6192 69.3265C75.6074 64.7647 75.6162 60.2029 75.6162 55.5647C79.8015 55.5647 83.9574 55.5647 88.2221 55.5647C88.2221 55.85 88.2221 56.1559 88.2221 56.4588C88.2221 60.6765 88.2251 64.8971 88.2221 69.1147ZM75.6309 50.2618C75.6309 47.0294 75.5368 43.8735 75.6574 40.7265C75.7839 37.2912 78.7074 34.7235 82.1486 34.8176C85.4692 34.9088 88.1692 37.6294 88.2133 41C88.2486 43.9823 88.2192 46.9676 88.2192 49.95C88.2192 50.0323 88.1957 50.1176 88.1751 50.2618C84.0251 50.2618 79.8721 50.2618 75.6309 50.2618ZM60.0604 85.9823C53.8868 82.3029 50.5839 76.8706 50.4545 69.7147C50.3162 62.1706 50.4251 54.6206 50.428 47.0735C50.428 46.9323 50.4486 46.7941 50.4662 46.5912C54.6221 46.5912 58.7515 46.5912 63.0163 46.5912C63.0163 46.9059 63.0163 47.2353 63.0163 47.5647C63.0163 54.7118 63.028 61.8559 63.0074 69.0029C63.0015 71.6588 63.9898 73.7235 66.3162 75.1176C66.5545 75.2618 66.728 75.7059 66.731 76.0118C66.7604 79.7706 66.7486 83.5324 66.7515 87.2912C66.7515 87.6059 66.7721 87.9206 66.7839 88.2353C66.6104 88.2353 66.4398 88.2353 66.2662 88.2353C64.1133 87.7147 61.9839 87.1294 60.0604 85.9823ZM50.4251 41.3029C50.4251 40.9853 50.4251 40.6559 50.4251 40.3265C50.4251 33.2882 50.4015 26.2529 50.4368 19.2176C50.4515 16.5441 49.4633 14.4941 47.1251 13.1176C46.9427 13.0118 46.7456 12.7412 46.7456 12.5441C46.7221 8.38235 46.728 4.22353 46.728 0C51.2427 0.682353 55.0074 2.61471 58.031 5.90882C61.2721 9.43824 62.978 13.6176 63.0015 18.4147C63.0368 25.8559 63.0163 33.2912 63.0192 40.7324C63.0192 40.9 63.0015 41.0706 62.9868 41.3029C58.8368 41.3029 54.7015 41.3029 50.4251 41.3029ZM39.9633 14.0647C38.3339 15.0824 37.8398 16.9647 37.8456 18.9147C37.8662 23.7088 37.8515 28.5059 37.8486 33.3C37.8486 35.7147 37.8486 38.1265 37.8427 40.5382C37.8427 40.7912 37.8133 41.0412 37.7956 41.3265C33.628 41.3265 29.5133 41.3265 25.2545 41.3265C25.2545 41.0529 25.2545 40.7824 25.2545 40.5118C25.2574 33.2176 25.2309 25.9235 25.2633 18.6294C25.3074 9.28823 31.9192 1.59706 41.1751 0.0529412C41.2574 0.0382353 41.3457 0.05 41.5427 0.05C41.5427 1.87941 41.5427 3.65588 41.5427 5.43529C41.5427 7.07353 41.4956 8.71176 41.5574 10.3471C41.6133 11.8588 41.5456 13.0794 39.9633 14.0647ZM25.2486 46.5794C29.4545 46.5794 33.5868 46.5794 37.8456 46.5794C37.8456 46.9147 37.8456 47.25 37.8456 47.5853C37.8456 54.7294 37.7898 61.8794 37.8604 69.0235C37.9633 79.4324 30.4633 86.7441 22.3192 88.1029C22.2103 88.1206 22.1104 88.1912 22.0045 88.2353C21.8339 88.2353 21.6603 88.2353 21.4868 88.2353C21.4986 84.2176 21.5251 80.2 21.5074 76.1824C21.5015 75.5618 21.6927 75.2353 22.2309 74.9029C24.3162 73.6206 25.2545 71.6794 25.2545 69.2618C25.2545 62.0559 25.2515 54.8529 25.2486 47.65C25.2486 47.3088 25.2486 46.9706 25.2486 46.5794ZM15.7809 88.2353C14.3368 87.7765 12.8221 87.4706 11.4604 86.8353C4.21918 83.4706 0.351519 77.7647 0.0779899 69.8C-0.0778925 65.2706 0.0485734 60.7324 0.0456323 56.1971C0.0456323 56 0.0456323 55.8029 0.0456323 55.5471C4.25446 55.5471 8.40741 55.5471 12.6545 55.5471C12.6545 55.8824 12.6545 56.1882 12.6545 56.4971C12.6545 60.7735 12.6692 65.05 12.6515 69.3265C12.6398 71.8441 13.7221 73.7206 15.8427 75.0529C16.0662 75.1941 16.3133 75.5147 16.3133 75.7529C16.3309 79.9147 16.3103 84.0735 16.2986 88.2353C16.128 88.2353 15.9545 88.2353 15.7809 88.2353ZM0.0485718 50.2853C0.0485718 48.6471 0.0485718 47.05 0.0485718 45.45C0.0485718 44.0147 0.0338659 42.5824 0.0485718 41.1471C0.0868071 37.7382 2.67798 34.9765 5.97504 34.8176C9.41916 34.65 12.4015 37.1147 12.5927 40.5794C12.7662 43.7794 12.628 46.9941 12.628 50.2853C8.40152 50.2853 4.26916 50.2853 0.0485718 50.2853Z" fill="#F75454"/>
</svg>
